<svg xmlns="http://www.w3.org/2000/svg" viewBox="0 12.199999809265137 250.6999969482422 51.39999771118164" data-asc="1.036" width="250.6999969482422" height="51.39999771118164"><defs/><g fill="#2e3cff"><g transform="translate(0, 0)"><path d="M19.70 52.50Q10.25 52.50 5.13 47.70Q0 42.90 0 32.35Q0 12.20 19.60 12.20Q24.35 12.20 28.43 13.35Q32.50 14.50 34.50 15.90L34.50 28.40L22.50 28.40L22.50 24.80Q22.50 22.90 21.65 22.00Q20.80 21.10 19.10 21.10Q17.40 21.10 16.55 22.00Q15.70 22.90 15.70 24.80L15.70 39.90Q15.70 41.80 16.55 42.70Q17.40 43.60 19.10 43.60Q20.80 43.60 21.65 42.70Q22.50 41.80 22.50 39.90L22.50 35.85L34.50 35.85L34.50 48.80Q32.45 50.20 28.43 51.35Q24.40 52.50 19.70 52.50ZM69.50 43.60L69.50 51.80L53.70 51.80L53.70 43.60L55.80 43.60L55.80 35.40Q55.80 33.75 55.10 32.98Q54.40 32.20 53 32.20Q50 32.20 50 35.40L50 43.60L52.10 43.60L52.10 51.80L36.30 51.80L36.30 43.60L38.50 43.60L38.50 21.10L36.30 21.10L36.30 12.90L50 12.90L50 27.90Q51.85 25.60 54 24.45Q56.15 23.30 59 23.30Q63.15 23.30 65.22 25.90Q67.30 28.50 67.30 33.05L67.30 43.60L69.50 43.60ZM104.30 43.60L104.30 51.80L88.50 51.80L88.50 43.60L90.60 43.60L90.60 35.40Q90.60 33.75 89.90 32.98Q89.20 32.20 87.80 32.20Q84.80 32.20 84.80 35.40L84.80 43.60L86.90 43.60L86.90 51.80L71.10 51.80L71.10 43.60L73.30 43.60L73.30 21.10L71.10 21.10L71.10 12.90L84.80 12.90L84.80 27.90Q86.65 25.60 88.80 24.45Q90.95 23.30 93.80 23.30Q97.95 23.30 100.03 25.90Q102.10 28.50 102.10 33.05L102.10 43.60L104.30 43.60ZM120.80 52.50Q113.70 52.50 109.70 48.78Q105.70 45.05 105.70 37.90Q105.70 30.75 109.70 27.03Q113.70 23.30 120.80 23.30Q127.85 23.30 130.97 26.98Q134.10 30.65 134.10 36.10L134.10 39.70L117.90 39.70L117.90 40Q117.90 41.85 119 42.73Q120.10 43.60 122.65 43.60Q125.70 43.60 128.45 43.15Q131.20 42.70 133.25 42L133.25 50.00Q131.50 50.95 128.13 51.73Q124.75 52.50 120.80 52.50M123.70 34.20L123.70 33.60Q123.70 31.90 122.97 31.15Q122.25 30.40 120.80 30.40Q119.35 30.40 118.63 31.18Q117.90 31.95 117.90 33.60L117.90 34.20L123.70 34.20ZM168.80 43.60L168.80 51.80L153 51.80L153 43.60L155.10 43.60L155.10 35.40Q155.10 33.75 154.40 32.98Q153.70 32.20 152.30 32.20Q149.30 32.20 149.30 35.40L149.30 43.60L151.40 43.60L151.40 51.80L135.60 51.80L135.60 43.60L137.80 43.60L137.80 32.20L135.60 32.20L135.60 24.00L149.30 24.00L149.30 27.90Q152.90 23.30 158.30 23.30Q162.45 23.30 164.52 25.90Q166.60 28.50 166.60 33.05L166.60 43.60L168.80 43.60ZM185.05 63.60Q181.45 63.60 178.18 63.10Q174.90 62.60 173.10 61.95L173.10 53.75Q178.40 54.70 182.60 54.70Q185.45 54.70 186.72 53.83Q188 52.95 188 50.55L188 48.40Q186.75 50.00 184.78 51.25Q182.80 52.50 180.25 52.50Q175.15 52.50 172.57 48.70Q170 44.90 170 37.90Q170 30.90 172.57 27.10Q175.15 23.30 180.25 23.30Q182.80 23.30 184.78 24.55Q186.75 25.80 188 27.40L188 24.00L201.70 24.00L201.70 32.20L199.50 32.20L199.50 49.80Q199.50 57.05 195.90 60.33Q192.30 63.60 185.05 63.60M185.10 43.60Q186.55 43.60 187.28 42.83Q188 42.05 188 40.40L188 35.40Q188 33.75 187.28 32.98Q186.55 32.20 185.10 32.20Q183.65 32.20 182.93 32.98Q182.20 33.75 182.20 35.40L182.20 40.40Q182.20 42.05 182.93 42.83Q183.65 43.60 185.10 43.60ZM203.10 51.85L203.10 43.60L205.30 43.60L205.30 21.10L203.10 21.10L203.10 12.90L216.80 12.90L216.80 43.60L219 43.60L219 51.85L203.10 51.85ZM250.70 24.00L250.70 32.20L248.80 32.20L242.25 49.55Q239.80 56.10 236.65 59.38Q233.50 62.65 228.35 62.65Q226.25 62.65 224.10 62.23Q221.95 61.80 220.20 61.05L220.20 52.00L227.10 52.00L227.10 52.50Q227.10 53.75 228.40 53.75Q229.55 53.75 230.15 52.65L222.25 32.20L220.35 32.20L220.35 24.00L235.20 24.00L235.20 32.20L233.50 32.20L236.10 40L238.50 32.20L236.80 32.20L236.80 24.00L250.70 24.00Z"/></g><g transform="translate(0, 66.65)"><path d=""/></g></g></svg>